name C:\Users\r0593348\3dpredictsim\Results\Batchsim_tmt_linear\Pog_s1_tmt_aCst_d05_k1000_ig24_pas.mot
datacolumns 128
datarows 4
range 1.65822933 1.69139392
endheader
time	pelvis_tilt	pelvis_list	pelvis_rotation	pelvis_tx	pelvis_ty	pelvis_tz	hip_flexion_l	hip_adduction_l	hip_rotation_l	hip_flexion_r	hip_adduction_r	hip_rotation_r	knee_angle_l	knee_angle_r	ankle_angle_l	ankle_angle_r	subtalar_angle_l	subtalar_angle_r	tmt_angle_l	tmt_angle_r	mtp_angle_l	mtp_angle_r	lumbar_extension	lumbar_bending	lumbar_rotation	arm_flex_l	arm_add_l	arm_rot_l	arm_flex_r	arm_add_r	arm_rot_r	elbow_flex_l	elbow_flex_r	pro_sup_l	pro_sup_r	glut_med1_l/activation	glut_med2_l/activation	glut_med3_l/activation	glut_min1_l/activation	glut_min2_l/activation	glut_min3_l/activation	semimem_l/activation	semiten_l/activation	bifemlh_l/activation	bifemsh_l/activation	sar_l/activation	add_long_l/activation	add_brev_l/activation	add_mag1_l/activation	add_mag2_l/activation	add_mag3_l/activation	tfl_l/activation	pect_l/activation	grac_l/activation	glut_max1_l/activation	glut_max2_l/activation	glut_max3_l/activation	iliacus_l/activation	psoas_l/activation	quad_fem_l/activation	gem_l/activation	peri_l/activation	rect_fem_l/activation	vas_med_l/activation	vas_int_l/activation	vas_lat_l/activation	med_gas_l/activation	lat_gas_l/activation	soleus_l/activation	tib_post_l/activation	flex_dig_l/activation	flex_hal_l/activation	tib_ant_l/activation	per_brev_l/activation	per_long_l/activation	per_tert_l/activation	ext_dig_l/activation	ext_hal_l/activation	ercspn_l/activation	intobl_l/activation	extobl_l/activation	glut_med1_r/activation	glut_med2_r/activation	glut_med3_r/activation	glut_min1_r/activation	glut_min2_r/activation	glut_min3_r/activation	semimem_r/activation	semiten_r/activation	bifemlh_r/activation	bifemsh_r/activation	sar_r/activation	add_long_r/activation	add_brev_r/activation	add_mag1_r/activation	add_mag2_r/activation	add_mag3_r/activation	tfl_r/activation	pect_r/activation	grac_r/activation	glut_max1_r/activation	glut_max2_r/activation	glut_max3_r/activation	iliacus_r/activation	psoas_r/activation	quad_fem_r/activation	gem_r/activation	peri_r/activation	rect_fem_r/activation	vas_med_r/activation	vas_int_r/activation	vas_lat_r/activation	med_gas_r/activation	lat_gas_r/activation	soleus_r/activation	tib_post_r/activation	flex_dig_r/activation	flex_hal_r/activation	tib_ant_r/activation	per_brev_r/activation	per_long_r/activation	per_tert_r/activation	ext_dig_r/activation	ext_hal_r/activation	ercspn_r/activation	intobl_r/activation	extobl_r/activation	
          1.65822933	         -2.92515142	          2.56234020	         -6.22354544	          2.07278666	          0.85486770	          0.00312960	         31.69693017	          3.29607172	         -3.07801902	        -18.79121367	         -2.37018166	          7.13328114	        -14.29036467	         -7.18803089	          6.62832315	          0.68606027	         -3.77170452	         10.69199068	          0.03313132	          1.02137309	         -0.11120726	         22.33093609	         -2.12328377	         -0.94281769	          2.15100069	        -10.14160910	        -13.55436680	          7.49955742	          8.91640240	        -13.46213806	         18.52645691	         13.10337136	         38.51766078	         86.51662706	         86.51662706	          0.05921221	          0.05921225	          0.05000023	          0.05921247	          0.05921243	          0.05920311	          0.05921263	          0.05000291	          0.32312600	          0.05000036	          0.05000062	          0.11645919	          0.25394323	          0.12482254	          0.13048299	          0.13798446	          0.05000021	          0.05923438	          0.07669639	          0.05000059	          0.07177921	          0.17365231	          0.05921131	          0.05004375	          0.23207917	          0.20611254	          0.13495193	          0.05124889	          0.17223956	          0.16428324	          0.14853229	          0.05000004	          0.05000008	          0.05000004	          0.05000001	          0.05000034	          0.05000026	          0.61157347	          0.36588485	          0.21120765	          0.38009455	          0.58294721	          0.33119808	          0.06651740	          0.09210778	          0.09746224	          0.24059546	          0.09098818	          0.06578424	          0.29833980	          0.18924831	          0.09834107	          0.05000258	          0.05000028	          0.05000020	          0.07408271	          0.10297846	          0.11656023	          0.08533183	          0.05000347	          0.05000331	          0.05000101	          0.31628962	          0.11612287	          0.05000255	          0.05000237	          0.05000163	          0.05000137	          0.40742251	          0.65999216	          0.05000034	          0.05000075	          0.05000020	          0.24776262	          0.09514974	          0.09194503	          0.07090488	          0.30838230	          0.41569554	          0.28359395	          0.28008056	          0.28689115	          0.37557915	          0.05000003	          0.05921295	          0.16690033	          0.05000019	          0.05000005	          0.05000017	          0.05000012	          0.05000010	          0.05000012	
          1.66928419	         -2.91563347	          2.65654463	         -6.50520661	          2.08970758	          0.85374389	          0.00291358	         31.09988140	          3.65526645	         -2.84144582	        -18.56961577	         -2.68906562	          6.93696309	        -14.63941552	         -9.33536948	          5.99842293	         -0.24842141	         -4.25047040	         11.68960611	          0.02677202	          0.96220020	         -0.07641059	         23.39047794	         -1.90036728	         -1.17170161	          2.23651659	        -11.33222759	        -13.54350466	          7.39431744	          8.70378868	        -13.47528860	         18.67998597	         13.06108522	         39.75646877	         86.51662706	         86.51662706	          0.05000003	          0.05000016	          0.13474899	          0.05000013	          0.05000015	          0.05000020	          0.05000032	          0.05000029	          0.27285343	          0.05000021	          0.05000342	          0.09834042	          0.21443446	          0.32091595	          0.22410914	          0.15432603	          0.05000121	          0.05002059	          0.06477646	          0.10478670	          0.12200714	          0.14663572	          0.05000015	          0.05000112	          0.39556990	          0.17404520	          0.11395590	          0.05921267	          0.14982789	          0.17941220	          0.14388081	          0.05000088	          0.06221292	          0.05000005	          0.06241459	          0.07374797	          0.07012258	          0.51642379	          0.38235767	          0.25003015	          0.32095876	          0.54971606	          0.27966969	          0.05616850	          0.07777747	          0.08229887	          0.20316321	          0.07683208	          0.05921117	          0.25192364	          0.15980474	          0.08304104	          0.05000506	          0.05000077	          0.05000164	          0.06255680	          0.08695708	          0.20901609	          0.15367721	          0.07010281	          0.05921373	          0.05921306	          0.26708088	          0.09806420	          0.05000596	          0.05001537	          0.05001860	          0.05920812	          0.34403497	          0.60765998	          0.05921221	          0.05921239	          0.05921165	          0.20921525	          0.16085876	          0.16332906	          0.16332382	          0.26040355	          0.35102079	          0.23947182	          0.23650530	          0.24225653	          0.31714615	          0.05000003	          0.05000058	          0.16340192	          0.05000011	          0.05000003	          0.05000016	          0.06180634	          0.05921249	          0.05000030	
          1.68033906	         -2.90235867	          2.74899837	         -6.75361903	          2.10686276	          0.85264656	          0.00270457	         30.35740828	          3.94934744	         -2.57172218	        -18.25383727	         -2.99233628	          6.72695782	        -15.27401187	        -11.62979492	          5.52102963	         -1.37264818	         -4.76281093	         12.61783454	         -0.01540157	          0.88867839	         -0.19701947	         24.26666109	         -1.66000860	         -1.40408670	          2.31025359	        -12.51301940	        -13.53621314	          7.34827171	          8.40036829	        -13.48869958	         18.75132528	         13.04926621	         40.96531262	         86.51662706	         86.51662706	          0.26597518	          0.27172410	          0.35010051	          0.35725723	          0.23666879	          0.19979984	          0.06979527	          0.05009619	          0.23040237	          0.07363510	          0.05000383	          0.08304057	          0.18107249	          0.27098737	          0.18924203	          0.15710800	          0.05000055	          0.05194845	          0.07572484	          0.20346016	          0.17641478	          0.13281265	          0.05000242	          0.05000050	          0.33402644	          0.14696710	          0.23272617	          0.05000030	          0.12651748	          0.15149905	          0.12149565	          0.05000829	          0.05253393	          0.05614590	          0.05270407	          0.06227422	          0.05921290	          0.57958045	          0.42927850	          0.21516537	          0.51974403	          0.62230810	          0.30115608	          0.07498110	          0.09463029	          0.06949466	          0.28066514	          0.06487842	          0.05000007	          0.33744320	          0.13494210	          0.07012141	          0.05199314	          0.05000026	          0.05000019	          0.05282420	          0.07342866	          0.17649723	          0.12976807	          0.05919625	          0.05000165	          0.05000086	          0.29577159	          0.08302768	          0.05000107	          0.05000162	          0.05000092	          0.05000057	          0.29050949	          0.56737985	          0.05000015	          0.05000065	          0.05000016	          0.17666514	          0.13583213	          0.13791808	          0.13791365	          0.21988943	          0.29640826	          0.20221430	          0.19970938	          0.20456593	          0.26780403	          0.05000002	          0.10543201	          0.18944891	          0.05000017	          0.05000009	          0.05000016	          0.06865444	          0.05000010	          0.05000006	
          1.69139392	         -2.88728376	          2.82951756	         -6.96295354	          2.12403236	          0.85160789	          0.00246698	         29.55117951	          4.22948774	         -2.30299532	        -17.82441316	         -3.27117994	          6.51285502	        -15.87171261	        -14.07436520	          5.17258932	         -2.66279565	         -5.28969418	         13.47905317	         -0.01883126	          0.79282755	         -0.19939786	         24.85743628	         -1.42428338	         -1.62888545	          2.37381466	        -13.62973967	        -13.52779868	          7.36664691	          8.04574150	        -13.50932132	         18.76817369	         13.03293608	         42.11520091	         86.51662706	         86.51662706	          0.35914434	          0.39309202	          0.45341818	          0.30167507	          0.19985285	          0.27018618	          0.07176733	          0.10967546	          0.19455592	          0.07010885	          0.05000056	          0.07012108	          0.15290106	          0.22884246	          0.24087025	          0.19136598	          0.05000034	          0.05001269	          0.13624200	          0.27864114	          0.22603392	          0.18972024	          0.05000016	          0.05000016	          0.28205805	          0.12410180	          0.22716151	          0.05000005	          0.14147962	          0.21679940	          0.16131883	          0.05000002	          0.05000005	          0.05000000	          0.05000001	          0.05258557	          0.05000053	          0.65956727	          0.36249065	          0.18168975	          0.67763775	          0.64522593	          0.40834638	          0.09233595	          0.07990753	          0.05868255	          0.23699880	          0.05478457	          0.05000011	          0.28494331	          0.11394761	          0.05921188	          0.07088356	          0.05000021	          0.05000024	          0.05000010	          0.06200468	          0.19145031	          0.14279650	          0.05000088	          0.05002258	          0.08375422	          0.25138996	          0.07011115	          0.05000060	          0.05000302	          0.05000214	          0.05000172	          0.24531147	          0.50770503	          0.05000020	          0.05000078	          0.05000019	          0.14917923	          0.11646148	          0.11646154	          0.11646145	          0.18567858	          0.25029247	          0.17075339	          0.16863824	          0.17273930	          0.22613866	          0.06490582	          0.13577901	          0.15997464	          0.05000071	          0.16447806	          0.10402409	          0.10107336	          0.05000002	          0.05000004	
